<svg xmlns="http://www.w3.org/2000/svg" xmlns:xlink="http://www.w3.org/1999/xlink" width="317.4" height="444.2" viewBox="0 0 317.4 444.2">
  <defs>
    <style>
      .cls-1 {
        fill: #fff;
      }

      .cls-2 {
        fill: #ffd107;
      }

      .cls-3 {
        fill: #263371;
      }

      .cls-4 {
        fill: url(#linear-gradient);
      }

      .cls-5 {
        fill: #e01d3c;
      }

      .cls-6 {
        fill: #f1f2f2;
      }

      .cls-7 {
        fill: #273370;
      }
    </style>
    <linearGradient id="linear-gradient" x1="17.52" y1="-0.71" x2="294.1" y2="522.57" gradientUnits="userSpaceOnUse">
      <stop offset="0.02" stop-color="#e93e3a"/>
      <stop offset="0.05" stop-color="#ee653a"/>
      <stop offset="0.1" stop-color="#f28a3a"/>
      <stop offset="0.14" stop-color="#f6ab3b"/>
      <stop offset="0.19" stop-color="#f9c53b"/>
      <stop offset="0.25" stop-color="#fcda3b"/>
      <stop offset="0.31" stop-color="#fee83b"/>
      <stop offset="0.38" stop-color="#fff03b"/>
      <stop offset="0.5" stop-color="#fff33b"/>
      <stop offset="0.56" stop-color="#feef3b"/>
      <stop offset="0.63" stop-color="#fce13b"/>
      <stop offset="0.7" stop-color="#f9cc3b"/>
      <stop offset="0.77" stop-color="#f5ad3b"/>
      <stop offset="0.85" stop-color="#ef863c"/>
      <stop offset="0.92" stop-color="#e8563c"/>
      <stop offset="1" stop-color="#e01e3c"/>
      <stop offset="1" stop-color="#e01d3c"/>
    </linearGradient>
  </defs>
  <g id="Layer_2" data-name="Layer 2">
    <g id="Layer_1-2" data-name="Layer 1">
      <g>
        <path class="cls-1" d="M270.9,140.8c-23.6-28.8-63.3-38.7-111.1-39.5-47.9.8-87.6,10.7-111.2,39.5S15.8,215.6,15.2,272.1s9,103.4,33.4,131.3,63.3,38.7,111.2,39.5c47.8-.8,87.5-10.7,111.1-39.5s32.8-74.8,33.4-131.3S295.3,168.7,270.9,140.8Zm-51.1,250v.4c-10.7,22.1-30.1,33.3-59.3,34.1-29.1-.8-48.5-12-59.3-34.1v-.4c-11-21.5-16.6-60.3-17-118.7s6-97.2,17-118.7V153c10.8-22.1,30.2-33.3,59.3-34.1,29.2.8,48.6,12,59.3,34.1l.2.4c11.1,21.5,16.6,60.3,17,118.7S230.9,369.3,219.8,390.8Z"/>
        <path class="cls-1" d="M280.7,129.3c-17-19.6-41.6-30.8-71.3-36.4q.8-40.8-.1-81.6C209.1,4.5,203.1-.1,196.5,0c-24.4.5-48.3.6-72.7,2.2-6.6.5-12.2,6.1-12.3,12.4q-.9,38.8-.1,77.6c-31.2,5.4-57.1,16.7-74.8,37.1C9.9,158.5.7,207.3,0,266.2S9.9,374,36.6,403.1s69.5,40.3,122.1,41.1c52.5-.8,96-11.1,122-41.1s36-77.9,36.7-136.9S307.4,158.5,280.7,129.3ZM224.6,390v.4c-11.8,23-33.1,34.7-65.1,35.5-32-.8-53.3-12.5-65.1-35.5V390c-12.1-22.4-18.3-62.9-18.7-123.8S81.9,164.9,94,142.5v-.4c10.1-19.7,27.1-31,51.8-34.5,11.6.7,23.1,1.1,34.7,1.5,20.4,4.6,34.8,15.5,43.7,33l.2.4c12.1,22.4,18.3,62.9,18.7,123.7S236.7,367.6,224.6,390Z"/>
        <g>
          <path class="cls-2" d="M157.2,435.4c-57.6-.8-95-13.5-117.8-39.9S4.8,328,4,263.6C4.8,199,16,157.1,39.4,131.5s60.2-39,117.8-39.9c57.5.9,95,13.6,117.8,39.9s34.6,67.5,35.3,132-12,106.5-35.4,132.1-60.2,39-117.7,39.8Zm.6-322.5c-29.8.8-49.5,11.6-60.4,32.9l-.2.4C85.8,167.4,80,205.7,79.6,263.5s6.2,96.2,17.6,117.3l.2.4c10.9,21.4,30.7,32.2,60.4,32.9s49.5-11.5,60.4-32.9l.2-.3c11.4-21.2,17.2-59.6,17.6-117.4s-6.2-96.1-17.6-117.3l-.2-.4C207.3,124.5,187.5,113.7,157.8,112.9Z"/>
          <path class="cls-3" d="M157.2,93.5c50.1.8,91.6,10.6,116.3,39.3s34.3,74.4,35,130.7-9.5,102.9-35,130.8-66.2,38.5-116.3,39.2S65.6,422.9,40.8,394.3,6.6,319.8,5.9,263.5s9.5-102.9,34.9-130.7,66.3-38.5,116.4-39.3m.6,322.5c30.5-.8,50.8-11.9,62.1-33.9v-.4c11.6-21.4,17.4-60.1,17.9-118.2s-6.3-96.8-17.9-118.2V145c-11.3-22.1-31.6-33.2-62.1-34-30.5.8-50.9,11.9-62.1,34h-.1v.2c-11.6,21.4-17.4,60.1-17.8,118.2s6.2,96.8,17.8,118.2v.4c11.2,22,31.6,33.1,62.1,33.9m-.6-326.2h-.1c-27.4.4-49.8,3.4-68.7,9.3-21.5,6.7-38,16.9-50.4,31.2s-21.7,32.2-27.6,56.3c-5.2,21.1-7.9,46.2-8.3,76.9h0c.4,30.6,3.1,55.8,8.3,76.9,5.9,24,15,42.5,27.6,56.3S66.9,421.3,88.4,428c18.9,5.8,41.3,8.9,68.7,9.3h.1c27.4-.4,49.9-3.5,68.8-9.3,21.5-6.7,38-16.9,50.4-31.2S298,364.5,304,340.5c5.2-21.1,7.9-46.3,8.2-76.9h0c-.3-30.7-3-55.8-8.2-76.9-6-24.1-15-42.5-27.6-56.3S247.5,105.8,226,99.1c-18.9-5.9-41.4-8.9-68.8-9.3ZM81.5,263.5c.4-57.4,6.1-95.5,17.3-116.4v-.2H99v-.2c10.5-20.7,29.7-31.1,58.7-31.9,28.9.8,48.1,11.2,58.7,31.9l.2.4c11.3,20.9,17,59,17.4,116.4S228,359.1,216.7,380h-.1v.2c-10.6,20.6-29.8,31.1-58.7,31.9-29-.8-48.2-11.3-58.7-31.9v-.2h-.2c-11.2-20.9-16.9-59-17.3-116.5Z"/>
        </g>
        <path class="cls-4" d="M273.5,132.8c-16.1-18.7-39.4-29.4-67.6-34.8a9.1,9.1,0,0,0,.1-1.7V19.6A13.8,13.8,0,0,0,192.2,5.7H128.5a13.9,13.9,0,0,0-13.9,13.9V96.9c-30.9,5-56.4,15.8-73.8,35.9C15.4,160.6,6.6,207.2,5.9,263.5s9.5,102.9,34.9,130.8,66.3,38.5,116.4,39.2,91.6-10.6,116.3-39.2,34.3-74.5,35-130.8S299,160.6,273.5,132.8ZM220,381.7v.4c-11.3,22-31.6,33.1-62.1,33.9-30.5-.8-50.9-11.9-62.1-33.9v-.4c-11.6-21.4-17.4-60.1-17.8-118.2s6.2-96.8,17.8-118.2v-.2h.1c11.2-22.1,31.6-33.2,62.1-34,30.5.8,50.8,11.9,62.1,34v.3c11.6,21.4,17.4,60.1,17.9,118.2S231.6,360.3,220,381.7Z"/>
        <g>
          <path class="cls-5" d="M145.4,363.8a3,3,0,0,1-3-3v-149H116.2a3.1,3.1,0,0,1-3-3V183.4a3.1,3.1,0,0,1,3-3h86.2a3.1,3.1,0,0,1,3,3v25.4a3.1,3.1,0,0,1-3,3H176.2v149a3,3,0,0,1-3,3Z"/>
          <path class="cls-6" d="M202.4,183.4v25.4H173.2v152H145.4v-152H116.2V183.4h86.2m0-6H116.2a6,6,0,0,0-6,6v25.4a6,6,0,0,0,6,6h23.2v146a6,6,0,0,0,6,6h27.8a6,6,0,0,0,6-6v-146h23.2a6,6,0,0,0,6-6V183.4a6,6,0,0,0-6-6Z"/>
        </g>
        <g>
          <path class="cls-7" d="M157.8,111a129.2,129.2,0,0,0-12.9,1.1h25.7A127.1,127.1,0,0,0,157.8,111Z"/>
          <path class="cls-7" d="M116.5,96.6v-77a12,12,0,0,1,12-12h63.7a12,12,0,0,1,12,12V96.3c0,.5-.1.9-.1,1.4l3.7.7a14.8,14.8,0,0,0,.1-2.1V19.6A15.7,15.7,0,0,0,192.2,3.8H128.5a15.8,15.8,0,0,0-15.8,15.8V96.3c0,.3.1.6.1.9Z"/>
        </g>
      </g>
    </g>
  </g>
</svg>
